<?xml version="1.0" encoding="utf-8" standalone="no"?>
<!DOCTYPE svg PUBLIC "-//W3C//DTD SVG 1.1//EN"
  "http://www.w3.org/Graphics/SVG/1.1/DTD/svg11.dtd">
<svg xmlns:xlink="http://www.w3.org/1999/xlink" width="576pt" height="288pt" viewBox="0 0 576 288" xmlns="http://www.w3.org/2000/svg" version="1.1">
 <metadata>
  <rdf:RDF xmlns:dc="http://purl.org/dc/elements/1.1/" xmlns:cc="http://creativecommons.org/ns#" xmlns:rdf="http://www.w3.org/1999/02/22-rdf-syntax-ns#">
   <cc:Work>
    <dc:type rdf:resource="http://purl.org/dc/dcmitype/StillImage"/>
    <dc:date>2023-10-10T06:21:08.311269</dc:date>
    <dc:format>image/svg+xml</dc:format>
    <dc:creator>
     <cc:Agent>
      <dc:title>Matplotlib v3.7.2, https://matplotlib.org/</dc:title>
     </cc:Agent>
    </dc:creator>
   </cc:Work>
  </rdf:RDF>
 </metadata>
 <defs>
  <style type="text/css">*{stroke-linejoin: round; stroke-linecap: butt}</style>
 </defs>
 <g id="figure_1">
  <g id="patch_1">
   <path d="M 0 288 
L 576 288 
L 576 0 
L 0 0 
z
" style="fill: #ffffff"/>
  </g>
  <g id="patch_2">
   <path d="M 186.48 252 
L 403.92 252 
L 403.92 34.56 
L 186.48 34.56 
z
" style="fill: #ffffff"/>
  </g>
  <g id="pane3d_1">
   <g id="patch_3">
    <path d="M 210.69279 207.49539 
L 276.477055 151.172283 
L 275.328563 43.809325 
L 205.655797 94.100331 
" style="fill: #f2f2f2; opacity: 0.5; stroke: #f2f2f2; stroke-linejoin: miter"/>
   </g>
  </g>
  <g id="pane3d_2">
   <g id="patch_4">
    <path d="M 276.477055 151.172283 
L 382.66534 182.605102 
L 387.362679 71.821892 
L 275.328563 43.809325 
" style="fill: #e6e6e6; opacity: 0.5; stroke: #e6e6e6; stroke-linejoin: miter"/>
   </g>
  </g>
  <g id="pane3d_3">
   <g id="patch_5">
    <path d="M 210.69279 207.49539 
L 322.72924 244.411399 
L 382.66534 182.605102 
L 276.477055 151.172283 
" style="fill: #ececec; opacity: 0.5; stroke: #ececec; stroke-linejoin: miter"/>
   </g>
  </g>
  <g id="axis3d_1">
   <g id="line2d_1">
    <path d="M 210.69279 207.49539 
L 322.72924 244.411399 
" style="fill: none; stroke: #000000; stroke-width: 0.8; stroke-linecap: square"/>
   </g>
   <g id="text_1">
    <!-- x -->
    <g transform="translate(247.633311 266.62833) scale(0.1 -0.1)">
     <defs>
      <path id="DejaVuSans-78" d="M 3513 3500 
L 2247 1797 
L 3578 0 
L 2900 0 
L 1881 1375 
L 863 0 
L 184 0 
L 1544 1831 
L 300 3500 
L 978 3500 
L 1906 2253 
L 2834 3500 
L 3513 3500 
z
" transform="scale(0.015625)"/>
     </defs>
     <use xlink:href="#DejaVuSans-78"/>
    </g>
   </g>
   <g id="Line3DCollection_1">
    <path d="M 215.854593 209.196204 
L 281.386864 152.625637 
L 280.49672 45.101551 
" style="fill: none; stroke: #b0b0b0; stroke-width: 0.8"/>
    <path d="M 240.33913 217.263859 
L 304.65307 159.512672 
L 305.002885 51.228975 
" style="fill: none; stroke: #b0b0b0; stroke-width: 0.8"/>
    <path d="M 265.357989 225.507572 
L 328.38781 166.538398 
L 330.029334 57.486489 
" style="fill: none; stroke: #b0b0b0; stroke-width: 0.8"/>
    <path d="M 290.928854 233.933172 
L 352.605381 173.707047 
L 355.592813 63.87828 
" style="fill: none; stroke: #b0b0b0; stroke-width: 0.8"/>
    <path d="M 317.070198 242.546745 
L 377.320666 181.023024 
L 381.710797 70.408718 
" style="fill: none; stroke: #b0b0b0; stroke-width: 0.8"/>
   </g>
   <g id="xtick_1">
    <g id="line2d_2">
     <path d="M 216.421408 208.706903 
L 214.718734 210.176733 
" style="fill: none; stroke: #000000; stroke-width: 0.8; stroke-linecap: square"/>
    </g>
    <g id="text_2">
     <!-- −10 -->
     <g transform="translate(198.540245 233.960055) scale(0.1 -0.1)">
      <defs>
       <path id="DejaVuSans-2212" d="M 678 2272 
L 4684 2272 
L 4684 1741 
L 678 1741 
L 678 2272 
z
" transform="scale(0.015625)"/>
       <path id="DejaVuSans-31" d="M 794 531 
L 1825 531 
L 1825 4091 
L 703 3866 
L 703 4441 
L 1819 4666 
L 2450 4666 
L 2450 531 
L 3481 531 
L 3481 0 
L 794 0 
L 794 531 
z
" transform="scale(0.015625)"/>
       <path id="DejaVuSans-30" d="M 2034 4250 
Q 1547 4250 1301 3770 
Q 1056 3291 1056 2328 
Q 1056 1369 1301 889 
Q 1547 409 2034 409 
Q 2525 409 2770 889 
Q 3016 1369 3016 2328 
Q 3016 3291 2770 3770 
Q 2525 4250 2034 4250 
z
M 2034 4750 
Q 2819 4750 3233 4129 
Q 3647 3509 3647 2328 
Q 3647 1150 3233 529 
Q 2819 -91 2034 -91 
Q 1250 -91 836 529 
Q 422 1150 422 2328 
Q 422 3509 836 4129 
Q 1250 4750 2034 4750 
z
" transform="scale(0.015625)"/>
      </defs>
      <use xlink:href="#DejaVuSans-2212"/>
      <use xlink:href="#DejaVuSans-31" x="83.789062"/>
      <use xlink:href="#DejaVuSans-30" x="147.412109"/>
     </g>
    </g>
   </g>
   <g id="xtick_2">
    <g id="line2d_3">
     <path d="M 240.895857 216.763941 
L 239.223461 218.265682 
" style="fill: none; stroke: #000000; stroke-width: 0.8; stroke-linecap: square"/>
    </g>
    <g id="text_3">
     <!-- −5 -->
     <g transform="translate(226.201626 242.236173) scale(0.1 -0.1)">
      <defs>
       <path id="DejaVuSans-35" d="M 691 4666 
L 3169 4666 
L 3169 4134 
L 1269 4134 
L 1269 2991 
Q 1406 3038 1543 3061 
Q 1681 3084 1819 3084 
Q 2600 3084 3056 2656 
Q 3513 2228 3513 1497 
Q 3513 744 3044 326 
Q 2575 -91 1722 -91 
Q 1428 -91 1123 -41 
Q 819 9 494 109 
L 494 744 
Q 775 591 1075 516 
Q 1375 441 1709 441 
Q 2250 441 2565 725 
Q 2881 1009 2881 1497 
Q 2881 1984 2565 2268 
Q 2250 2553 1709 2553 
Q 1456 2553 1204 2497 
Q 953 2441 691 2322 
L 691 4666 
z
" transform="scale(0.015625)"/>
      </defs>
      <use xlink:href="#DejaVuSans-2212"/>
      <use xlink:href="#DejaVuSans-35" x="83.789062"/>
     </g>
    </g>
   </g>
   <g id="xtick_3">
    <g id="line2d_4">
     <path d="M 265.904051 224.99669 
L 264.263668 226.531393 
" style="fill: none; stroke: #000000; stroke-width: 0.8; stroke-linecap: square"/>
    </g>
    <g id="text_4">
     <!-- 0 -->
     <g transform="translate(255.407344 250.693412) scale(0.1 -0.1)">
      <use xlink:href="#DejaVuSans-30"/>
     </g>
    </g>
   </g>
   <g id="xtick_4">
    <g id="line2d_5">
     <path d="M 291.463643 233.410959 
L 289.857101 234.979722 
" style="fill: none; stroke: #000000; stroke-width: 0.8; stroke-linecap: square"/>
    </g>
    <g id="text_5">
     <!-- 5 -->
     <g transform="translate(280.976744 259.337784) scale(0.1 -0.1)">
      <use xlink:href="#DejaVuSans-35"/>
     </g>
    </g>
   </g>
   <g id="xtick_5">
    <g id="line2d_6">
     <path d="M 317.593073 242.01282 
L 316.022299 243.616789 
" style="fill: none; stroke: #000000; stroke-width: 0.8; stroke-linecap: square"/>
    </g>
    <g id="text_6">
     <!-- 10 -->
     <g transform="translate(303.936997 268.17557) scale(0.1 -0.1)">
      <use xlink:href="#DejaVuSans-31"/>
      <use xlink:href="#DejaVuSans-30" x="63.623047"/>
     </g>
    </g>
   </g>
  </g>
  <g id="axis3d_2">
   <g id="line2d_7">
    <path d="M 382.66534 182.605102 
L 322.72924 244.411399 
" style="fill: none; stroke: #000000; stroke-width: 0.8; stroke-linecap: square"/>
   </g>
   <g id="text_7">
    <!-- y -->
    <g transform="translate(375.471401 246.571812) scale(0.1 -0.1)">
     <defs>
      <path id="DejaVuSans-79" d="M 2059 -325 
Q 1816 -950 1584 -1140 
Q 1353 -1331 966 -1331 
L 506 -1331 
L 506 -850 
L 844 -850 
Q 1081 -850 1212 -737 
Q 1344 -625 1503 -206 
L 1606 56 
L 191 3500 
L 800 3500 
L 1894 763 
L 2988 3500 
L 3597 3500 
L 2059 -325 
z
" transform="scale(0.015625)"/>
     </defs>
     <use xlink:href="#DejaVuSans-79"/>
    </g>
   </g>
   <g id="Line3DCollection_2">
    <path d="M 209.292295 91.475444 
L 214.112232 204.567736 
L 325.855737 241.187346 
" style="fill: none; stroke: #b0b0b0; stroke-width: 0.8"/>
    <path d="M 225.924723 79.46987 
L 229.771634 191.160485 
L 340.158082 226.438722 
" style="fill: none; stroke: #b0b0b0; stroke-width: 0.8"/>
    <path d="M 241.934826 67.913501 
L 244.875777 178.228634 
L 353.929215 212.237886 
" style="fill: none; stroke: #b0b0b0; stroke-width: 0.8"/>
    <path d="M 257.356891 56.781588 
L 259.453681 165.747339 
L 367.198192 198.554875 
" style="fill: none; stroke: #b0b0b0; stroke-width: 0.8"/>
    <path d="M 272.222731 46.051169 
L 273.532375 153.693456 
L 379.991987 185.361872 
" style="fill: none; stroke: #b0b0b0; stroke-width: 0.8"/>
   </g>
   <g id="xtick_6">
    <g id="line2d_8">
     <path d="M 324.918088 240.880068 
L 327.733254 241.80263 
" style="fill: none; stroke: #000000; stroke-width: 0.8; stroke-linecap: square"/>
    </g>
    <g id="text_8">
     <!-- −10 -->
     <g transform="translate(327.040497 263.8607) scale(0.1 -0.1)">
      <use xlink:href="#DejaVuSans-2212"/>
      <use xlink:href="#DejaVuSans-31" x="83.789062"/>
      <use xlink:href="#DejaVuSans-30" x="147.412109"/>
     </g>
    </g>
   </g>
   <g id="xtick_7">
    <g id="line2d_9">
     <path d="M 339.232637 226.142961 
L 342.011122 227.030932 
" style="fill: none; stroke: #000000; stroke-width: 0.8; stroke-linecap: square"/>
    </g>
    <g id="text_9">
     <!-- −5 -->
     <g transform="translate(344.291311 248.83824) scale(0.1 -0.1)">
      <use xlink:href="#DejaVuSans-2212"/>
      <use xlink:href="#DejaVuSans-35" x="83.789062"/>
     </g>
    </g>
   </g>
   <g id="xtick_8">
    <g id="line2d_10">
     <path d="M 353.015723 211.953005 
L 355.758283 212.808296 
" style="fill: none; stroke: #000000; stroke-width: 0.8; stroke-linecap: square"/>
    </g>
    <g id="text_10">
     <!-- 0 -->
     <g transform="translate(362.028541 234.373321) scale(0.1 -0.1)">
      <use xlink:href="#DejaVuSans-30"/>
     </g>
    </g>
   </g>
   <g id="xtick_9">
    <g id="line2d_11">
     <path d="M 366.296403 198.280285 
L 369.003788 199.104667 
" style="fill: none; stroke: #000000; stroke-width: 0.8; stroke-linecap: square"/>
    </g>
    <g id="text_11">
     <!-- 5 -->
     <g transform="translate(375.082292 220.435472) scale(0.1 -0.1)">
      <use xlink:href="#DejaVuSans-35"/>
     </g>
    </g>
   </g>
   <g id="xtick_10">
    <g id="line2d_12">
     <path d="M 379.101657 185.097027 
L 381.774605 185.892145 
" style="fill: none; stroke: #000000; stroke-width: 0.8; stroke-linecap: square"/>
    </g>
    <g id="text_12">
     <!-- 10 -->
     <g transform="translate(384.487655 206.996399) scale(0.1 -0.1)">
      <use xlink:href="#DejaVuSans-31"/>
      <use xlink:href="#DejaVuSans-30" x="63.623047"/>
     </g>
    </g>
   </g>
  </g>
  <g id="axis3d_3">
   <g id="line2d_13">
    <path d="M 382.66534 182.605102 
L 387.362679 71.821892 
" style="fill: none; stroke: #000000; stroke-width: 0.8; stroke-linecap: square"/>
   </g>
   <g id="text_13">
    <!-- z -->
    <g transform="translate(419.714119 126.461357) scale(0.1 -0.1)">
     <defs>
      <path id="DejaVuSans-7a" d="M 353 3500 
L 3084 3500 
L 3084 2975 
L 922 459 
L 3084 459 
L 3084 0 
L 275 0 
L 275 525 
L 2438 3041 
L 353 3041 
L 353 3500 
z
" transform="scale(0.015625)"/>
     </defs>
     <use xlink:href="#DejaVuSans-7a"/>
    </g>
   </g>
   <g id="Line3DCollection_3">
    <path d="M 383.799697 155.852143 
L 276.199197 125.197651 
L 209.478182 180.151572 
" style="fill: none; stroke: #b0b0b0; stroke-width: 0.8"/>
    <path d="M 384.950514 128.711001 
L 275.917639 98.877158 
L 208.244798 152.385078 
" style="fill: none; stroke: #b0b0b0; stroke-width: 0.8"/>
    <path d="M 386.132672 100.830673 
L 275.628761 71.872311 
L 206.976614 123.835146 
" style="fill: none; stroke: #b0b0b0; stroke-width: 0.8"/>
   </g>
   <g id="xtick_11">
    <g id="line2d_14">
     <path d="M 382.899452 155.59567 
L 385.602185 156.365656 
" style="fill: none; stroke: #000000; stroke-width: 0.8; stroke-linecap: square"/>
    </g>
    <g id="text_14">
     <!-- −5 -->
     <g transform="translate(393.47284 161.07471) scale(0.1 -0.1)">
      <use xlink:href="#DejaVuSans-2212"/>
      <use xlink:href="#DejaVuSans-35" x="83.789062"/>
     </g>
    </g>
   </g>
   <g id="xtick_12">
    <g id="line2d_15">
     <path d="M 384.037748 128.461248 
L 386.778098 129.211069 
" style="fill: none; stroke: #000000; stroke-width: 0.8; stroke-linecap: square"/>
    </g>
    <g id="text_15">
     <!-- 0 -->
     <g transform="translate(399.037695 133.995907) scale(0.1 -0.1)">
      <use xlink:href="#DejaVuSans-30"/>
     </g>
    </g>
   </g>
   <g id="xtick_13">
    <g id="line2d_16">
     <path d="M 385.207034 100.588103 
L 387.986061 101.316367 
" style="fill: none; stroke: #000000; stroke-width: 0.8; stroke-linecap: square"/>
    </g>
    <g id="text_16">
     <!-- 5 -->
     <g transform="translate(400.450023 106.182209) scale(0.1 -0.1)">
      <use xlink:href="#DejaVuSans-35"/>
     </g>
    </g>
   </g>
  </g>
  <g id="axes_1">
   <g id="line2d_17">
    <path d="M 313.668805 85.127037 
L 305.981298 91.366577 
L 311.665498 88.714257 
L 313.668805 85.127037 
" clip-path="url(#p9e9814c539)" style="fill: none; stroke: #4682b4; stroke-width: 0.5; stroke-linecap: square"/>
   </g>
   <g id="line2d_18">
    <path d="M 311.511617 81.580654 
L 305.981298 91.366577 
L 313.668805 85.127037 
L 311.511617 81.580654 
" clip-path="url(#p9e9814c539)" style="fill: none; stroke: #4682b4; stroke-width: 0.5; stroke-linecap: square"/>
   </g>
   <g id="line2d_19">
    <path d="M 311.511617 81.580654 
L 298.138399 92.343004 
L 305.981298 91.366577 
L 311.511617 81.580654 
" clip-path="url(#p9e9814c539)" style="fill: none; stroke: #4682b4; stroke-width: 0.5; stroke-linecap: square"/>
   </g>
   <g id="line2d_20">
    <path d="M 305.827381 79.009985 
L 298.138399 92.343004 
L 311.511617 81.580654 
L 305.827381 79.009985 
" clip-path="url(#p9e9814c539)" style="fill: none; stroke: #4682b4; stroke-width: 0.5; stroke-linecap: square"/>
   </g>
   <g id="line2d_21">
    <path d="M 305.827381 79.009985 
L 290.295453 91.366562 
L 298.138399 92.343004 
L 305.827381 79.009985 
" clip-path="url(#p9e9814c539)" style="fill: none; stroke: #4682b4; stroke-width: 0.5; stroke-linecap: square"/>
   </g>
   <g id="line2d_22">
    <path d="M 298.138358 78.074368 
L 290.295453 91.366562 
L 305.827381 79.009985 
L 298.138358 78.074368 
" clip-path="url(#p9e9814c539)" style="fill: none; stroke: #4682b4; stroke-width: 0.5; stroke-linecap: square"/>
   </g>
   <g id="line2d_23">
    <path d="M 298.138358 78.074368 
L 284.611227 88.714255 
L 290.295453 91.366562 
L 298.138358 78.074368 
" clip-path="url(#p9e9814c539)" style="fill: none; stroke: #4682b4; stroke-width: 0.5; stroke-linecap: square"/>
   </g>
   <g id="line2d_24">
    <path d="M 290.449382 79.009971 
L 284.611227 88.714255 
L 298.138358 78.074368 
L 290.449382 79.009971 
" clip-path="url(#p9e9814c539)" style="fill: none; stroke: #4682b4; stroke-width: 0.5; stroke-linecap: square"/>
   </g>
   <g id="line2d_25">
    <path d="M 290.449382 79.009971 
L 282.607952 85.127056 
L 284.611227 88.714255 
L 290.449382 79.009971 
" clip-path="url(#p9e9814c539)" style="fill: none; stroke: #4682b4; stroke-width: 0.5; stroke-linecap: square"/>
   </g>
   <g id="line2d_26">
    <path d="M 282.607952 85.127056 
L 290.449382 79.009971 
L 284.765171 81.580651 
L 282.607952 85.127056 
" clip-path="url(#p9e9814c539)" style="fill: none; stroke: #4682b4; stroke-width: 0.5; stroke-linecap: square"/>
   </g>
   <g id="line2d_27">
    <path d="M 335.193664 110.277747 
L 340.262072 100.213373 
L 311.665498 88.714257 
L 335.193664 110.277747 
" clip-path="url(#p9e9814c539)" style="fill: none; stroke: #4682b4; stroke-width: 0.5; stroke-linecap: square"/>
   </g>
   <g id="line2d_28">
    <path d="M 340.262072 100.213373 
L 313.668805 85.127037 
L 311.665498 88.714257 
L 340.262072 100.213373 
" clip-path="url(#p9e9814c539)" style="fill: none; stroke: #4682b4; stroke-width: 0.5; stroke-linecap: square"/>
   </g>
   <g id="line2d_29">
    <path d="M 340.262072 100.213373 
L 334.061084 90.456601 
L 313.668805 85.127037 
L 340.262072 100.213373 
" clip-path="url(#p9e9814c539)" style="fill: none; stroke: #4682b4; stroke-width: 0.5; stroke-linecap: square"/>
   </g>
   <g id="line2d_30">
    <path d="M 334.061084 90.456601 
L 311.511617 81.580654 
L 313.668805 85.127037 
L 334.061084 90.456601 
" clip-path="url(#p9e9814c539)" style="fill: none; stroke: #4682b4; stroke-width: 0.5; stroke-linecap: square"/>
   </g>
   <g id="line2d_31">
    <path d="M 334.061084 90.456601 
L 318.648936 83.501097 
L 311.511617 81.580654 
L 334.061084 90.456601 
" clip-path="url(#p9e9814c539)" style="fill: none; stroke: #4682b4; stroke-width: 0.5; stroke-linecap: square"/>
   </g>
   <g id="line2d_32">
    <path d="M 318.648936 83.501097 
L 305.827381 79.009985 
L 311.511617 81.580654 
L 318.648936 83.501097 
" clip-path="url(#p9e9814c539)" style="fill: none; stroke: #4682b4; stroke-width: 0.5; stroke-linecap: square"/>
   </g>
   <g id="line2d_33">
    <path d="M 318.648936 83.501097 
L 298.138385 80.99355 
L 305.827381 79.009985 
L 318.648936 83.501097 
" clip-path="url(#p9e9814c539)" style="fill: none; stroke: #4682b4; stroke-width: 0.5; stroke-linecap: square"/>
   </g>
   <g id="line2d_34">
    <path d="M 298.138385 80.99355 
L 298.138358 78.074368 
L 305.827381 79.009985 
L 298.138385 80.99355 
" clip-path="url(#p9e9814c539)" style="fill: none; stroke: #4682b4; stroke-width: 0.5; stroke-linecap: square"/>
   </g>
   <g id="line2d_35">
    <path d="M 298.138385 80.99355 
L 277.627837 83.501117 
L 298.138358 78.074368 
L 298.138385 80.99355 
" clip-path="url(#p9e9814c539)" style="fill: none; stroke: #4682b4; stroke-width: 0.5; stroke-linecap: square"/>
   </g>
   <g id="line2d_36">
    <path d="M 277.627837 83.501117 
L 290.449382 79.009971 
L 298.138358 78.074368 
L 277.627837 83.501117 
" clip-path="url(#p9e9814c539)" style="fill: none; stroke: #4682b4; stroke-width: 0.5; stroke-linecap: square"/>
   </g>
   <g id="line2d_37">
    <path d="M 277.627837 83.501117 
L 262.215629 90.456593 
L 290.449382 79.009971 
L 277.627837 83.501117 
" clip-path="url(#p9e9814c539)" style="fill: none; stroke: #4682b4; stroke-width: 0.5; stroke-linecap: square"/>
   </g>
   <g id="line2d_38">
    <path d="M 262.215629 90.456593 
L 284.765171 81.580651 
L 290.449382 79.009971 
L 262.215629 90.456593 
" clip-path="url(#p9e9814c539)" style="fill: none; stroke: #4682b4; stroke-width: 0.5; stroke-linecap: square"/>
   </g>
   <g id="line2d_39">
    <path d="M 262.215629 90.456593 
L 256.014685 100.213366 
L 284.765171 81.580651 
L 262.215629 90.456593 
" clip-path="url(#p9e9814c539)" style="fill: none; stroke: #4682b4; stroke-width: 0.5; stroke-linecap: square"/>
   </g>
   <g id="line2d_40">
    <path d="M 256.014685 100.213366 
L 282.607952 85.127056 
L 284.765171 81.580651 
L 256.014685 100.213366 
" clip-path="url(#p9e9814c539)" style="fill: none; stroke: #4682b4; stroke-width: 0.5; stroke-linecap: square"/>
   </g>
   <g id="line2d_41">
    <path d="M 256.014685 100.213366 
L 261.083139 110.277739 
L 282.607952 85.127056 
L 256.014685 100.213366 
" clip-path="url(#p9e9814c539)" style="fill: none; stroke: #4682b4; stroke-width: 0.5; stroke-linecap: square"/>
   </g>
   <g id="line2d_42">
    <path d="M 261.083139 110.277739 
L 284.611227 88.714255 
L 282.607952 85.127056 
L 261.083139 110.277739 
" clip-path="url(#p9e9814c539)" style="fill: none; stroke: #4682b4; stroke-width: 0.5; stroke-linecap: square"/>
   </g>
   <g id="line2d_43">
    <path d="M 261.083139 110.277739 
L 276.494739 117.848892 
L 284.611227 88.714255 
L 261.083139 110.277739 
" clip-path="url(#p9e9814c539)" style="fill: none; stroke: #4682b4; stroke-width: 0.5; stroke-linecap: square"/>
   </g>
   <g id="line2d_44">
    <path d="M 276.494739 117.848892 
L 290.295453 91.366562 
L 284.611227 88.714255 
L 276.494739 117.848892 
" clip-path="url(#p9e9814c539)" style="fill: none; stroke: #4682b4; stroke-width: 0.5; stroke-linecap: square"/>
   </g>
   <g id="line2d_45">
    <path d="M 276.494739 117.848892 
L 298.138371 120.664483 
L 290.295453 91.366562 
L 276.494739 117.848892 
" clip-path="url(#p9e9814c539)" style="fill: none; stroke: #4682b4; stroke-width: 0.5; stroke-linecap: square"/>
   </g>
   <g id="line2d_46">
    <path d="M 298.138371 120.664483 
L 298.138399 92.343004 
L 290.295453 91.366562 
L 298.138371 120.664483 
" clip-path="url(#p9e9814c539)" style="fill: none; stroke: #4682b4; stroke-width: 0.5; stroke-linecap: square"/>
   </g>
   <g id="line2d_47">
    <path d="M 298.138371 120.664483 
L 319.781999 117.84887 
L 298.138399 92.343004 
L 298.138371 120.664483 
" clip-path="url(#p9e9814c539)" style="fill: none; stroke: #4682b4; stroke-width: 0.5; stroke-linecap: square"/>
   </g>
   <g id="line2d_48">
    <path d="M 319.781999 117.84887 
L 305.981298 91.366577 
L 298.138399 92.343004 
L 319.781999 117.84887 
" clip-path="url(#p9e9814c539)" style="fill: none; stroke: #4682b4; stroke-width: 0.5; stroke-linecap: square"/>
   </g>
   <g id="line2d_49">
    <path d="M 319.781999 117.84887 
L 335.193664 110.277747 
L 305.981298 91.366577 
L 319.781999 117.84887 
" clip-path="url(#p9e9814c539)" style="fill: none; stroke: #4682b4; stroke-width: 0.5; stroke-linecap: square"/>
   </g>
   <g id="line2d_50">
    <path d="M 335.193664 110.277747 
L 311.665498 88.714257 
L 305.981298 91.366577 
L 335.193664 110.277747 
" clip-path="url(#p9e9814c539)" style="fill: none; stroke: #4682b4; stroke-width: 0.5; stroke-linecap: square"/>
   </g>
   <g id="line2d_51">
    <path d="M 348.40877 140.036537 
L 354.970238 125.834947 
L 335.193664 110.277747 
L 348.40877 140.036537 
" clip-path="url(#p9e9814c539)" style="fill: none; stroke: #4682b4; stroke-width: 0.5; stroke-linecap: square"/>
   </g>
   <g id="line2d_52">
    <path d="M 354.970238 125.834947 
L 340.262072 100.213373 
L 335.193664 110.277747 
L 354.970238 125.834947 
" clip-path="url(#p9e9814c539)" style="fill: none; stroke: #4682b4; stroke-width: 0.5; stroke-linecap: square"/>
   </g>
   <g id="line2d_53">
    <path d="M 354.970238 125.834947 
L 346.346855 112.215877 
L 340.262072 100.213373 
L 354.970238 125.834947 
" clip-path="url(#p9e9814c539)" style="fill: none; stroke: #4682b4; stroke-width: 0.5; stroke-linecap: square"/>
   </g>
   <g id="line2d_54">
    <path d="M 346.346855 112.215877 
L 334.061084 90.456601 
L 340.262072 100.213373 
L 346.346855 112.215877 
" clip-path="url(#p9e9814c539)" style="fill: none; stroke: #4682b4; stroke-width: 0.5; stroke-linecap: square"/>
   </g>
   <g id="line2d_55">
    <path d="M 346.346855 112.215877 
L 325.559884 102.594905 
L 334.061084 90.456601 
L 346.346855 112.215877 
" clip-path="url(#p9e9814c539)" style="fill: none; stroke: #4682b4; stroke-width: 0.5; stroke-linecap: square"/>
   </g>
   <g id="line2d_56">
    <path d="M 325.559884 102.594905 
L 318.648936 83.501097 
L 334.061084 90.456601 
L 325.559884 102.594905 
" clip-path="url(#p9e9814c539)" style="fill: none; stroke: #4682b4; stroke-width: 0.5; stroke-linecap: square"/>
   </g>
   <g id="line2d_57">
    <path d="M 325.559884 102.594905 
L 298.138366 99.144167 
L 318.648936 83.501097 
L 325.559884 102.594905 
" clip-path="url(#p9e9814c539)" style="fill: none; stroke: #4682b4; stroke-width: 0.5; stroke-linecap: square"/>
   </g>
   <g id="line2d_58">
    <path d="M 298.138366 99.144167 
L 298.138385 80.99355 
L 318.648936 83.501097 
L 298.138366 99.144167 
" clip-path="url(#p9e9814c539)" style="fill: none; stroke: #4682b4; stroke-width: 0.5; stroke-linecap: square"/>
   </g>
   <g id="line2d_59">
    <path d="M 298.138366 99.144167 
L 270.716895 102.594911 
L 298.138385 80.99355 
L 298.138366 99.144167 
" clip-path="url(#p9e9814c539)" style="fill: none; stroke: #4682b4; stroke-width: 0.5; stroke-linecap: square"/>
   </g>
   <g id="line2d_60">
    <path d="M 270.716895 102.594911 
L 277.627837 83.501117 
L 298.138385 80.99355 
L 270.716895 102.594911 
" clip-path="url(#p9e9814c539)" style="fill: none; stroke: #4682b4; stroke-width: 0.5; stroke-linecap: square"/>
   </g>
   <g id="line2d_61">
    <path d="M 270.716895 102.594911 
L 249.929889 112.215866 
L 277.627837 83.501117 
L 270.716895 102.594911 
" clip-path="url(#p9e9814c539)" style="fill: none; stroke: #4682b4; stroke-width: 0.5; stroke-linecap: square"/>
   </g>
   <g id="line2d_62">
    <path d="M 249.929889 112.215866 
L 262.215629 90.456593 
L 277.627837 83.501117 
L 249.929889 112.215866 
" clip-path="url(#p9e9814c539)" style="fill: none; stroke: #4682b4; stroke-width: 0.5; stroke-linecap: square"/>
   </g>
   <g id="line2d_63">
    <path d="M 249.929889 112.215866 
L 241.306517 125.83496 
L 262.215629 90.456593 
L 249.929889 112.215866 
" clip-path="url(#p9e9814c539)" style="fill: none; stroke: #4682b4; stroke-width: 0.5; stroke-linecap: square"/>
   </g>
   <g id="line2d_64">
    <path d="M 241.306517 125.83496 
L 256.014685 100.213366 
L 262.215629 90.456593 
L 241.306517 125.83496 
" clip-path="url(#p9e9814c539)" style="fill: none; stroke: #4682b4; stroke-width: 0.5; stroke-linecap: square"/>
   </g>
   <g id="line2d_65">
    <path d="M 241.306517 125.83496 
L 247.868001 140.036525 
L 256.014685 100.213366 
L 241.306517 125.83496 
" clip-path="url(#p9e9814c539)" style="fill: none; stroke: #4682b4; stroke-width: 0.5; stroke-linecap: square"/>
   </g>
   <g id="line2d_66">
    <path d="M 247.868001 140.036525 
L 261.083139 110.277739 
L 256.014685 100.213366 
L 247.868001 140.036525 
" clip-path="url(#p9e9814c539)" style="fill: none; stroke: #4682b4; stroke-width: 0.5; stroke-linecap: square"/>
   </g>
   <g id="line2d_67">
    <path d="M 247.868001 140.036525 
L 268.65316 150.824024 
L 261.083139 110.277739 
L 247.868001 140.036525 
" clip-path="url(#p9e9814c539)" style="fill: none; stroke: #4682b4; stroke-width: 0.5; stroke-linecap: square"/>
   </g>
   <g id="line2d_68">
    <path d="M 268.65316 150.824024 
L 276.494739 117.848892 
L 261.083139 110.277739 
L 268.65316 150.824024 
" clip-path="url(#p9e9814c539)" style="fill: none; stroke: #4682b4; stroke-width: 0.5; stroke-linecap: square"/>
   </g>
   <g id="line2d_69">
    <path d="M 268.65316 150.824024 
L 298.138392 154.85879 
L 276.494739 117.848892 
L 268.65316 150.824024 
" clip-path="url(#p9e9814c539)" style="fill: none; stroke: #4682b4; stroke-width: 0.5; stroke-linecap: square"/>
   </g>
   <g id="line2d_70">
    <path d="M 298.138392 154.85879 
L 298.138371 120.664483 
L 276.494739 117.848892 
L 298.138392 154.85879 
" clip-path="url(#p9e9814c539)" style="fill: none; stroke: #4682b4; stroke-width: 0.5; stroke-linecap: square"/>
   </g>
   <g id="line2d_71">
    <path d="M 298.138392 154.85879 
L 327.623572 150.824017 
L 298.138371 120.664483 
L 298.138392 154.85879 
" clip-path="url(#p9e9814c539)" style="fill: none; stroke: #4682b4; stroke-width: 0.5; stroke-linecap: square"/>
   </g>
   <g id="line2d_72">
    <path d="M 327.623572 150.824017 
L 319.781999 117.84887 
L 298.138371 120.664483 
L 327.623572 150.824017 
" clip-path="url(#p9e9814c539)" style="fill: none; stroke: #4682b4; stroke-width: 0.5; stroke-linecap: square"/>
   </g>
   <g id="line2d_73">
    <path d="M 327.623572 150.824017 
L 348.40877 140.036537 
L 319.781999 117.84887 
L 327.623572 150.824017 
" clip-path="url(#p9e9814c539)" style="fill: none; stroke: #4682b4; stroke-width: 0.5; stroke-linecap: square"/>
   </g>
   <g id="line2d_74">
    <path d="M 348.40877 140.036537 
L 335.193664 110.277747 
L 319.781999 117.84887 
L 348.40877 140.036537 
" clip-path="url(#p9e9814c539)" style="fill: none; stroke: #4682b4; stroke-width: 0.5; stroke-linecap: square"/>
   </g>
   <g id="line2d_75">
    <path d="M 347.687505 169.24953 
L 354.171664 154.644442 
L 348.40877 140.036537 
L 347.687505 169.24953 
" clip-path="url(#p9e9814c539)" style="fill: none; stroke: #4682b4; stroke-width: 0.5; stroke-linecap: square"/>
   </g>
   <g id="line2d_76">
    <path d="M 354.171664 154.644442 
L 354.970238 125.834947 
L 348.40877 140.036537 
L 354.171664 154.644442 
" clip-path="url(#p9e9814c539)" style="fill: none; stroke: #4682b4; stroke-width: 0.5; stroke-linecap: square"/>
   </g>
   <g id="line2d_77">
    <path d="M 354.171664 154.644442 
L 345.683154 140.630176 
L 354.970238 125.834947 
L 354.171664 154.644442 
" clip-path="url(#p9e9814c539)" style="fill: none; stroke: #4682b4; stroke-width: 0.5; stroke-linecap: square"/>
   </g>
   <g id="line2d_78">
    <path d="M 345.683154 140.630176 
L 346.346855 112.215877 
L 354.970238 125.834947 
L 345.683154 140.630176 
" clip-path="url(#p9e9814c539)" style="fill: none; stroke: #4682b4; stroke-width: 0.5; stroke-linecap: square"/>
   </g>
   <g id="line2d_79">
    <path d="M 345.683154 140.630176 
L 325.187871 130.725153 
L 346.346855 112.215877 
L 345.683154 140.630176 
" clip-path="url(#p9e9814c539)" style="fill: none; stroke: #4682b4; stroke-width: 0.5; stroke-linecap: square"/>
   </g>
   <g id="line2d_80">
    <path d="M 325.187871 130.725153 
L 325.559884 102.594905 
L 346.346855 112.215877 
L 325.187871 130.725153 
" clip-path="url(#p9e9814c539)" style="fill: none; stroke: #4682b4; stroke-width: 0.5; stroke-linecap: square"/>
   </g>
   <g id="line2d_81">
    <path d="M 325.187871 130.725153 
L 298.138366 127.171553 
L 325.559884 102.594905 
L 325.187871 130.725153 
" clip-path="url(#p9e9814c539)" style="fill: none; stroke: #4682b4; stroke-width: 0.5; stroke-linecap: square"/>
   </g>
   <g id="line2d_82">
    <path d="M 298.138366 127.171553 
L 298.138366 99.144167 
L 325.559884 102.594905 
L 298.138366 127.171553 
" clip-path="url(#p9e9814c539)" style="fill: none; stroke: #4682b4; stroke-width: 0.5; stroke-linecap: square"/>
   </g>
   <g id="line2d_83">
    <path d="M 298.138366 127.171553 
L 271.088907 130.72516 
L 298.138366 99.144167 
L 298.138366 127.171553 
" clip-path="url(#p9e9814c539)" style="fill: none; stroke: #4682b4; stroke-width: 0.5; stroke-linecap: square"/>
   </g>
   <g id="line2d_84">
    <path d="M 271.088907 130.72516 
L 270.716895 102.594911 
L 298.138366 99.144167 
L 271.088907 130.72516 
" clip-path="url(#p9e9814c539)" style="fill: none; stroke: #4682b4; stroke-width: 0.5; stroke-linecap: square"/>
   </g>
   <g id="line2d_85">
    <path d="M 271.088907 130.72516 
L 250.593591 140.630165 
L 270.716895 102.594911 
L 271.088907 130.72516 
" clip-path="url(#p9e9814c539)" style="fill: none; stroke: #4682b4; stroke-width: 0.5; stroke-linecap: square"/>
   </g>
   <g id="line2d_86">
    <path d="M 250.593591 140.630165 
L 249.929889 112.215866 
L 270.716895 102.594911 
L 250.593591 140.630165 
" clip-path="url(#p9e9814c539)" style="fill: none; stroke: #4682b4; stroke-width: 0.5; stroke-linecap: square"/>
   </g>
   <g id="line2d_87">
    <path d="M 250.593591 140.630165 
L 242.105092 154.644455 
L 249.929889 112.215866 
L 250.593591 140.630165 
" clip-path="url(#p9e9814c539)" style="fill: none; stroke: #4682b4; stroke-width: 0.5; stroke-linecap: square"/>
   </g>
   <g id="line2d_88">
    <path d="M 242.105092 154.644455 
L 241.306517 125.83496 
L 249.929889 112.215866 
L 242.105092 154.644455 
" clip-path="url(#p9e9814c539)" style="fill: none; stroke: #4682b4; stroke-width: 0.5; stroke-linecap: square"/>
   </g>
   <g id="line2d_89">
    <path d="M 242.105092 154.644455 
L 248.589266 169.249518 
L 241.306517 125.83496 
L 242.105092 154.644455 
" clip-path="url(#p9e9814c539)" style="fill: none; stroke: #4682b4; stroke-width: 0.5; stroke-linecap: square"/>
   </g>
   <g id="line2d_90">
    <path d="M 248.589266 169.249518 
L 247.868001 140.036525 
L 241.306517 125.83496 
L 248.589266 169.249518 
" clip-path="url(#p9e9814c539)" style="fill: none; stroke: #4682b4; stroke-width: 0.5; stroke-linecap: square"/>
   </g>
   <g id="line2d_91">
    <path d="M 248.589266 169.249518 
L 269.082836 180.337651 
L 247.868001 140.036525 
L 248.589266 169.249518 
" clip-path="url(#p9e9814c539)" style="fill: none; stroke: #4682b4; stroke-width: 0.5; stroke-linecap: square"/>
   </g>
   <g id="line2d_92">
    <path d="M 269.082836 180.337651 
L 268.65316 150.824024 
L 247.868001 140.036525 
L 269.082836 180.337651 
" clip-path="url(#p9e9814c539)" style="fill: none; stroke: #4682b4; stroke-width: 0.5; stroke-linecap: square"/>
   </g>
   <g id="line2d_93">
    <path d="M 269.082836 180.337651 
L 298.138392 184.483562 
L 268.65316 150.824024 
L 269.082836 180.337651 
" clip-path="url(#p9e9814c539)" style="fill: none; stroke: #4682b4; stroke-width: 0.5; stroke-linecap: square"/>
   </g>
   <g id="line2d_94">
    <path d="M 298.138392 184.483562 
L 298.138392 154.85879 
L 268.65316 150.824024 
L 298.138392 184.483562 
" clip-path="url(#p9e9814c539)" style="fill: none; stroke: #4682b4; stroke-width: 0.5; stroke-linecap: square"/>
   </g>
   <g id="line2d_95">
    <path d="M 298.138392 184.483562 
L 327.193897 180.337644 
L 298.138392 154.85879 
L 298.138392 184.483562 
" clip-path="url(#p9e9814c539)" style="fill: none; stroke: #4682b4; stroke-width: 0.5; stroke-linecap: square"/>
   </g>
   <g id="line2d_96">
    <path d="M 327.193897 180.337644 
L 327.623572 150.824017 
L 298.138392 154.85879 
L 327.193897 180.337644 
" clip-path="url(#p9e9814c539)" style="fill: none; stroke: #4682b4; stroke-width: 0.5; stroke-linecap: square"/>
   </g>
   <g id="line2d_97">
    <path d="M 327.193897 180.337644 
L 347.687505 169.24953 
L 327.623572 150.824017 
L 327.193897 180.337644 
" clip-path="url(#p9e9814c539)" style="fill: none; stroke: #4682b4; stroke-width: 0.5; stroke-linecap: square"/>
   </g>
   <g id="line2d_98">
    <path d="M 347.687505 169.24953 
L 348.40877 140.036537 
L 327.623572 150.824017 
L 347.687505 169.24953 
" clip-path="url(#p9e9814c539)" style="fill: none; stroke: #4682b4; stroke-width: 0.5; stroke-linecap: square"/>
   </g>
   <g id="line2d_99">
    <path d="M 333.766931 189.818106 
L 338.664406 178.947895 
L 347.687505 169.24953 
L 333.766931 189.818106 
" clip-path="url(#p9e9814c539)" style="fill: none; stroke: #4682b4; stroke-width: 0.5; stroke-linecap: square"/>
   </g>
   <g id="line2d_100">
    <path d="M 338.664406 178.947895 
L 354.171664 154.644442 
L 347.687505 169.24953 
L 338.664406 178.947895 
" clip-path="url(#p9e9814c539)" style="fill: none; stroke: #4682b4; stroke-width: 0.5; stroke-linecap: square"/>
   </g>
   <g id="line2d_101">
    <path d="M 338.664406 178.947895 
L 332.718652 168.3975 
L 354.171664 154.644442 
L 338.664406 178.947895 
" clip-path="url(#p9e9814c539)" style="fill: none; stroke: #4682b4; stroke-width: 0.5; stroke-linecap: square"/>
   </g>
   <g id="line2d_102">
    <path d="M 332.718652 168.3975 
L 345.683154 140.630176 
L 354.171664 154.644442 
L 332.718652 168.3975 
" clip-path="url(#p9e9814c539)" style="fill: none; stroke: #4682b4; stroke-width: 0.5; stroke-linecap: square"/>
   </g>
   <g id="line2d_103">
    <path d="M 332.718652 168.3975 
L 317.890622 160.868756 
L 345.683154 140.630176 
L 332.718652 168.3975 
" clip-path="url(#p9e9814c539)" style="fill: none; stroke: #4682b4; stroke-width: 0.5; stroke-linecap: square"/>
   </g>
   <g id="line2d_104">
    <path d="M 317.890622 160.868756 
L 325.187871 130.725153 
L 345.683154 140.630176 
L 317.890622 160.868756 
" clip-path="url(#p9e9814c539)" style="fill: none; stroke: #4682b4; stroke-width: 0.5; stroke-linecap: square"/>
   </g>
   <g id="line2d_105">
    <path d="M 317.890622 160.868756 
L 298.138385 158.15302 
L 325.187871 130.725153 
L 317.890622 160.868756 
" clip-path="url(#p9e9814c539)" style="fill: none; stroke: #4682b4; stroke-width: 0.5; stroke-linecap: square"/>
   </g>
   <g id="line2d_106">
    <path d="M 298.138385 158.15302 
L 298.138366 127.171553 
L 325.187871 130.725153 
L 298.138385 158.15302 
" clip-path="url(#p9e9814c539)" style="fill: none; stroke: #4682b4; stroke-width: 0.5; stroke-linecap: square"/>
   </g>
   <g id="line2d_107">
    <path d="M 298.138385 158.15302 
L 278.38615 160.868777 
L 298.138366 127.171553 
L 298.138385 158.15302 
" clip-path="url(#p9e9814c539)" style="fill: none; stroke: #4682b4; stroke-width: 0.5; stroke-linecap: square"/>
   </g>
   <g id="line2d_108">
    <path d="M 278.38615 160.868777 
L 271.088907 130.72516 
L 298.138366 127.171553 
L 278.38615 160.868777 
" clip-path="url(#p9e9814c539)" style="fill: none; stroke: #4682b4; stroke-width: 0.5; stroke-linecap: square"/>
   </g>
   <g id="line2d_109">
    <path d="M 278.38615 160.868777 
L 263.558063 168.397491 
L 271.088907 130.72516 
L 278.38615 160.868777 
" clip-path="url(#p9e9814c539)" style="fill: none; stroke: #4682b4; stroke-width: 0.5; stroke-linecap: square"/>
   </g>
   <g id="line2d_110">
    <path d="M 263.558063 168.397491 
L 250.593591 140.630165 
L 271.088907 130.72516 
L 263.558063 168.397491 
" clip-path="url(#p9e9814c539)" style="fill: none; stroke: #4682b4; stroke-width: 0.5; stroke-linecap: square"/>
   </g>
   <g id="line2d_111">
    <path d="M 263.558063 168.397491 
L 257.612351 178.947887 
L 250.593591 140.630165 
L 263.558063 168.397491 
" clip-path="url(#p9e9814c539)" style="fill: none; stroke: #4682b4; stroke-width: 0.5; stroke-linecap: square"/>
   </g>
   <g id="line2d_112">
    <path d="M 257.612351 178.947887 
L 242.105092 154.644455 
L 250.593591 140.630165 
L 257.612351 178.947887 
" clip-path="url(#p9e9814c539)" style="fill: none; stroke: #4682b4; stroke-width: 0.5; stroke-linecap: square"/>
   </g>
   <g id="line2d_113">
    <path d="M 257.612351 178.947887 
L 262.50987 189.818097 
L 242.105092 154.644455 
L 257.612351 178.947887 
" clip-path="url(#p9e9814c539)" style="fill: none; stroke: #4682b4; stroke-width: 0.5; stroke-linecap: square"/>
   </g>
   <g id="line2d_114">
    <path d="M 262.50987 189.818097 
L 248.589266 169.249518 
L 242.105092 154.644455 
L 262.50987 189.818097 
" clip-path="url(#p9e9814c539)" style="fill: none; stroke: #4682b4; stroke-width: 0.5; stroke-linecap: square"/>
   </g>
   <g id="line2d_115">
    <path d="M 262.50987 189.818097 
L 277.33743 197.986901 
L 248.589266 169.249518 
L 262.50987 189.818097 
" clip-path="url(#p9e9814c539)" style="fill: none; stroke: #4682b4; stroke-width: 0.5; stroke-linecap: square"/>
   </g>
   <g id="line2d_116">
    <path d="M 277.33743 197.986901 
L 269.082836 180.337651 
L 248.589266 169.249518 
L 277.33743 197.986901 
" clip-path="url(#p9e9814c539)" style="fill: none; stroke: #4682b4; stroke-width: 0.5; stroke-linecap: square"/>
   </g>
   <g id="line2d_117">
    <path d="M 277.33743 197.986901 
L 298.138371 201.022877 
L 269.082836 180.337651 
L 277.33743 197.986901 
" clip-path="url(#p9e9814c539)" style="fill: none; stroke: #4682b4; stroke-width: 0.5; stroke-linecap: square"/>
   </g>
   <g id="line2d_118">
    <path d="M 298.138371 201.022877 
L 298.138392 184.483562 
L 269.082836 180.337651 
L 298.138371 201.022877 
" clip-path="url(#p9e9814c539)" style="fill: none; stroke: #4682b4; stroke-width: 0.5; stroke-linecap: square"/>
   </g>
   <g id="line2d_119">
    <path d="M 298.138371 201.022877 
L 318.939309 197.986877 
L 298.138392 184.483562 
L 298.138371 201.022877 
" clip-path="url(#p9e9814c539)" style="fill: none; stroke: #4682b4; stroke-width: 0.5; stroke-linecap: square"/>
   </g>
   <g id="line2d_120">
    <path d="M 318.939309 197.986877 
L 327.193897 180.337644 
L 298.138392 184.483562 
L 318.939309 197.986877 
" clip-path="url(#p9e9814c539)" style="fill: none; stroke: #4682b4; stroke-width: 0.5; stroke-linecap: square"/>
   </g>
   <g id="line2d_121">
    <path d="M 318.939309 197.986877 
L 333.766931 189.818106 
L 327.193897 180.337644 
L 318.939309 197.986877 
" clip-path="url(#p9e9814c539)" style="fill: none; stroke: #4682b4; stroke-width: 0.5; stroke-linecap: square"/>
   </g>
   <g id="line2d_122">
    <path d="M 333.766931 189.818106 
L 347.687505 169.24953 
L 327.193897 180.337644 
L 333.766931 189.818106 
" clip-path="url(#p9e9814c539)" style="fill: none; stroke: #4682b4; stroke-width: 0.5; stroke-linecap: square"/>
   </g>
   <g id="line2d_123">
    <path d="M 310.965684 196.703935 
L 312.869711 192.715208 
L 333.766931 189.818106 
L 310.965684 196.703935 
" clip-path="url(#p9e9814c539)" style="fill: none; stroke: #4682b4; stroke-width: 0.5; stroke-linecap: square"/>
   </g>
   <g id="line2d_124">
    <path d="M 312.869711 192.715208 
L 338.664406 178.947895 
L 333.766931 189.818106 
L 312.869711 192.715208 
" clip-path="url(#p9e9814c539)" style="fill: none; stroke: #4682b4; stroke-width: 0.5; stroke-linecap: square"/>
   </g>
   <g id="line2d_125">
    <path d="M 312.869711 192.715208 
L 310.827232 188.769567 
L 338.664406 178.947895 
L 312.869711 192.715208 
" clip-path="url(#p9e9814c539)" style="fill: none; stroke: #4682b4; stroke-width: 0.5; stroke-linecap: square"/>
   </g>
   <g id="line2d_126">
    <path d="M 310.827232 188.769567 
L 332.718652 168.3975 
L 338.664406 178.947895 
L 310.827232 188.769567 
" clip-path="url(#p9e9814c539)" style="fill: none; stroke: #4682b4; stroke-width: 0.5; stroke-linecap: square"/>
   </g>
   <g id="line2d_127">
    <path d="M 310.827232 188.769567 
L 305.43544 185.908043 
L 332.718652 168.3975 
L 310.827232 188.769567 
" clip-path="url(#p9e9814c539)" style="fill: none; stroke: #4682b4; stroke-width: 0.5; stroke-linecap: square"/>
   </g>
   <g id="line2d_128">
    <path d="M 305.43544 185.908043 
L 317.890622 160.868756 
L 332.718652 168.3975 
L 305.43544 185.908043 
" clip-path="url(#p9e9814c539)" style="fill: none; stroke: #4682b4; stroke-width: 0.5; stroke-linecap: square"/>
   </g>
   <g id="line2d_129">
    <path d="M 305.43544 185.908043 
L 298.138359 184.866265 
L 317.890622 160.868756 
L 305.43544 185.908043 
" clip-path="url(#p9e9814c539)" style="fill: none; stroke: #4682b4; stroke-width: 0.5; stroke-linecap: square"/>
   </g>
   <g id="line2d_130">
    <path d="M 298.138359 184.866265 
L 298.138385 158.15302 
L 317.890622 160.868756 
L 298.138359 184.866265 
" clip-path="url(#p9e9814c539)" style="fill: none; stroke: #4682b4; stroke-width: 0.5; stroke-linecap: square"/>
   </g>
   <g id="line2d_131">
    <path d="M 298.138359 184.866265 
L 290.841322 185.908028 
L 298.138385 158.15302 
L 298.138359 184.866265 
" clip-path="url(#p9e9814c539)" style="fill: none; stroke: #4682b4; stroke-width: 0.5; stroke-linecap: square"/>
   </g>
   <g id="line2d_132">
    <path d="M 290.841322 185.908028 
L 278.38615 160.868777 
L 298.138385 158.15302 
L 290.841322 185.908028 
" clip-path="url(#p9e9814c539)" style="fill: none; stroke: #4682b4; stroke-width: 0.5; stroke-linecap: square"/>
   </g>
   <g id="line2d_133">
    <path d="M 290.841322 185.908028 
L 285.449554 188.769564 
L 278.38615 160.868777 
L 290.841322 185.908028 
" clip-path="url(#p9e9814c539)" style="fill: none; stroke: #4682b4; stroke-width: 0.5; stroke-linecap: square"/>
   </g>
   <g id="line2d_134">
    <path d="M 285.449554 188.769564 
L 263.558063 168.397491 
L 278.38615 160.868777 
L 285.449554 188.769564 
" clip-path="url(#p9e9814c539)" style="fill: none; stroke: #4682b4; stroke-width: 0.5; stroke-linecap: square"/>
   </g>
   <g id="line2d_135">
    <path d="M 285.449554 188.769564 
L 283.407045 192.71523 
L 263.558063 168.397491 
L 285.449554 188.769564 
" clip-path="url(#p9e9814c539)" style="fill: none; stroke: #4682b4; stroke-width: 0.5; stroke-linecap: square"/>
   </g>
   <g id="line2d_136">
    <path d="M 283.407045 192.71523 
L 257.612351 178.947887 
L 263.558063 168.397491 
L 283.407045 192.71523 
" clip-path="url(#p9e9814c539)" style="fill: none; stroke: #4682b4; stroke-width: 0.5; stroke-linecap: square"/>
   </g>
   <g id="line2d_137">
    <path d="M 283.407045 192.71523 
L 285.311043 196.703932 
L 257.612351 178.947887 
L 283.407045 192.71523 
" clip-path="url(#p9e9814c539)" style="fill: none; stroke: #4682b4; stroke-width: 0.5; stroke-linecap: square"/>
   </g>
   <g id="line2d_138">
    <path d="M 285.311043 196.703932 
L 262.50987 189.818097 
L 257.612351 178.947887 
L 285.311043 196.703932 
" clip-path="url(#p9e9814c539)" style="fill: none; stroke: #4682b4; stroke-width: 0.5; stroke-linecap: square"/>
   </g>
   <g id="line2d_139">
    <path d="M 285.311043 196.703932 
L 290.702828 199.651586 
L 262.50987 189.818097 
L 285.311043 196.703932 
" clip-path="url(#p9e9814c539)" style="fill: none; stroke: #4682b4; stroke-width: 0.5; stroke-linecap: square"/>
   </g>
   <g id="line2d_140">
    <path d="M 290.702828 199.651586 
L 277.33743 197.986901 
L 262.50987 189.818097 
L 290.702828 199.651586 
" clip-path="url(#p9e9814c539)" style="fill: none; stroke: #4682b4; stroke-width: 0.5; stroke-linecap: square"/>
   </g>
   <g id="line2d_141">
    <path d="M 290.702828 199.651586 
L 298.138398 200.736434 
L 277.33743 197.986901 
L 290.702828 199.651586 
" clip-path="url(#p9e9814c539)" style="fill: none; stroke: #4682b4; stroke-width: 0.5; stroke-linecap: square"/>
   </g>
   <g id="line2d_142">
    <path d="M 298.138398 200.736434 
L 298.138371 201.022877 
L 277.33743 197.986901 
L 298.138398 200.736434 
" clip-path="url(#p9e9814c539)" style="fill: none; stroke: #4682b4; stroke-width: 0.5; stroke-linecap: square"/>
   </g>
   <g id="line2d_143">
    <path d="M 298.138398 200.736434 
L 305.573923 199.651603 
L 298.138371 201.022877 
L 298.138398 200.736434 
" clip-path="url(#p9e9814c539)" style="fill: none; stroke: #4682b4; stroke-width: 0.5; stroke-linecap: square"/>
   </g>
   <g id="line2d_144">
    <path d="M 305.573923 199.651603 
L 318.939309 197.986877 
L 298.138371 201.022877 
L 305.573923 199.651603 
" clip-path="url(#p9e9814c539)" style="fill: none; stroke: #4682b4; stroke-width: 0.5; stroke-linecap: square"/>
   </g>
   <g id="line2d_145">
    <path d="M 305.573923 199.651603 
L 310.965684 196.703935 
L 318.939309 197.986877 
L 305.573923 199.651603 
" clip-path="url(#p9e9814c539)" style="fill: none; stroke: #4682b4; stroke-width: 0.5; stroke-linecap: square"/>
   </g>
   <g id="line2d_146">
    <path d="M 310.965684 196.703935 
L 333.766931 189.818106 
L 318.939309 197.986877 
L 310.965684 196.703935 
" clip-path="url(#p9e9814c539)" style="fill: none; stroke: #4682b4; stroke-width: 0.5; stroke-linecap: square"/>
   </g>
   <g id="line2d_147">
    <path d="M 305.573923 199.651603 
L 312.869711 192.715208 
L 310.965684 196.703935 
L 305.573923 199.651603 
" clip-path="url(#p9e9814c539)" style="fill: none; stroke: #4682b4; stroke-width: 0.5; stroke-linecap: square"/>
   </g>
   <g id="line2d_148">
    <path d="M 298.138398 200.736434 
L 312.869711 192.715208 
L 305.573923 199.651603 
L 298.138398 200.736434 
" clip-path="url(#p9e9814c539)" style="fill: none; stroke: #4682b4; stroke-width: 0.5; stroke-linecap: square"/>
   </g>
   <g id="line2d_149">
    <path d="M 298.138398 200.736434 
L 310.827232 188.769567 
L 312.869711 192.715208 
L 298.138398 200.736434 
" clip-path="url(#p9e9814c539)" style="fill: none; stroke: #4682b4; stroke-width: 0.5; stroke-linecap: square"/>
   </g>
   <g id="line2d_150">
    <path d="M 298.138398 200.736434 
L 305.43544 185.908043 
L 310.827232 188.769567 
L 298.138398 200.736434 
" clip-path="url(#p9e9814c539)" style="fill: none; stroke: #4682b4; stroke-width: 0.5; stroke-linecap: square"/>
   </g>
   <g id="line2d_151">
    <path d="M 290.702828 199.651586 
L 305.43544 185.908043 
L 298.138398 200.736434 
L 290.702828 199.651586 
" clip-path="url(#p9e9814c539)" style="fill: none; stroke: #4682b4; stroke-width: 0.5; stroke-linecap: square"/>
   </g>
   <g id="line2d_152">
    <path d="M 285.311043 196.703932 
L 305.43544 185.908043 
L 290.702828 199.651586 
L 285.311043 196.703932 
" clip-path="url(#p9e9814c539)" style="fill: none; stroke: #4682b4; stroke-width: 0.5; stroke-linecap: square"/>
   </g>
   <g id="line2d_153">
    <path d="M 285.311043 196.703932 
L 298.138359 184.866265 
L 305.43544 185.908043 
L 285.311043 196.703932 
" clip-path="url(#p9e9814c539)" style="fill: none; stroke: #4682b4; stroke-width: 0.5; stroke-linecap: square"/>
   </g>
   <g id="line2d_154">
    <path d="M 283.407045 192.71523 
L 298.138359 184.866265 
L 285.311043 196.703932 
L 283.407045 192.71523 
" clip-path="url(#p9e9814c539)" style="fill: none; stroke: #4682b4; stroke-width: 0.5; stroke-linecap: square"/>
   </g>
   <g id="line2d_155">
    <path d="M 283.407045 192.71523 
L 290.841322 185.908028 
L 298.138359 184.866265 
L 283.407045 192.71523 
" clip-path="url(#p9e9814c539)" style="fill: none; stroke: #4682b4; stroke-width: 0.5; stroke-linecap: square"/>
   </g>
   <g id="line2d_156">
    <path d="M 290.841322 185.908028 
L 283.407045 192.71523 
L 285.449554 188.769564 
L 290.841322 185.908028 
" clip-path="url(#p9e9814c539)" style="fill: none; stroke: #4682b4; stroke-width: 0.5; stroke-linecap: square"/>
   </g>
   <g id="line2d_157">
    <path d="M 344.599447 117.676787 
L 343.303004 128.538982 
" clip-path="url(#p9e9814c539)" style="fill: none; stroke: #ff0000; stroke-width: 1.5; stroke-linecap: square"/>
   </g>
   <g id="line2d_158">
    <path d="M 345.578418 109.474428 
L 344.599447 117.676787 
" clip-path="url(#p9e9814c539)" style="fill: none; stroke: #ff0000; stroke-width: 1.5; stroke-linecap: square"/>
   </g>
   <g id="line2d_159">
    <path d="M 342.490633 104.609309 
L 345.578418 109.474428 
" clip-path="url(#p9e9814c539)" style="fill: none; stroke: #ff0000; stroke-width: 1.5; stroke-linecap: square"/>
   </g>
   <g id="line2d_160">
    <path d="M 338.516944 98.348354 
L 342.490633 104.609309 
" clip-path="url(#p9e9814c539)" style="fill: none; stroke: #ff0000; stroke-width: 1.5; stroke-linecap: square"/>
   </g>
   <g id="line2d_161">
    <path d="M 329.741111 96.624806 
L 338.516944 98.348354 
" clip-path="url(#p9e9814c539)" style="fill: none; stroke: #ff0000; stroke-width: 1.5; stroke-linecap: square"/>
   </g>
   <g id="line2d_162">
    <path d="M 322.913692 95.283914 
L 329.741111 96.624806 
" clip-path="url(#p9e9814c539)" style="fill: none; stroke: #ff0000; stroke-width: 1.5; stroke-linecap: square"/>
   </g>
   <g id="line2d_163">
    <path d="M 305.456941 100.06514 
L 322.913692 95.283914 
" clip-path="url(#p9e9814c539)" style="fill: none; stroke: #ff0000; stroke-width: 1.5; stroke-linecap: square"/>
   </g>
   <g id="line2d_164">
    <path d="M 333.257521 147.900008 
L 340.512802 133.916632 
" clip-path="url(#p9e9814c539)" style="fill: none; stroke: #ff0000; stroke-width: 1.5; stroke-linecap: square"/>
   </g>
   <g id="line2d_165">
    <path d="M 343.303004 128.538982 
L 340.512802 133.916632 
" clip-path="url(#p9e9814c539)" style="fill: none; stroke: #ff0000; stroke-width: 1.5; stroke-linecap: square"/>
   </g>
   <g id="line2d_166">
    <path d="M 298.138366 103.637361 
L 305.456941 100.06514 
" clip-path="url(#p9e9814c539)" style="fill: none; stroke: #ff0000; stroke-width: 1.5; stroke-linecap: square"/>
   </g>
   <g id="line2d_167">
    <path d="M 284.557779 114.999878 
L 298.138366 103.637361 
" clip-path="url(#p9e9814c539)" style="fill: none; stroke: #ff0000; stroke-width: 1.5; stroke-linecap: square"/>
   </g>
   <g id="line2d_168">
    <path d="M 271.03062 126.317694 
L 284.557779 114.999878 
" clip-path="url(#p9e9814c539)" style="fill: none; stroke: #ff0000; stroke-width: 1.5; stroke-linecap: square"/>
   </g>
   <g id="line2d_169">
    <path d="M 265.656085 133.350742 
L 271.03062 126.317694 
" clip-path="url(#p9e9814c539)" style="fill: none; stroke: #ff0000; stroke-width: 1.5; stroke-linecap: square"/>
   </g>
   <g id="line2d_170">
    <path d="M 290.32014 183.367983 
L 295.225554 181.158345 
" clip-path="url(#p9e9814c539)" style="fill: none; stroke: #ff0000; stroke-width: 1.5; stroke-linecap: square"/>
   </g>
   <g id="line2d_171">
    <path d="M 298.138392 179.84626 
L 295.225554 181.158345 
" clip-path="url(#p9e9814c539)" style="fill: none; stroke: #ff0000; stroke-width: 1.5; stroke-linecap: square"/>
   </g>
   <g id="line2d_172">
    <path d="M 312.81518 167.728907 
L 298.138392 179.84626 
" clip-path="url(#p9e9814c539)" style="fill: none; stroke: #ff0000; stroke-width: 1.5; stroke-linecap: square"/>
   </g>
   <g id="line2d_173">
    <path d="M 327.554626 155.559823 
L 312.81518 167.728907 
" clip-path="url(#p9e9814c539)" style="fill: none; stroke: #ff0000; stroke-width: 1.5; stroke-linecap: square"/>
   </g>
   <g id="line2d_174">
    <path d="M 329.676737 152.70952 
L 327.554626 155.559823 
" clip-path="url(#p9e9814c539)" style="fill: none; stroke: #ff0000; stroke-width: 1.5; stroke-linecap: square"/>
   </g>
   <g id="line2d_175">
    <path d="M 333.257521 147.900008 
L 329.676737 152.70952 
" clip-path="url(#p9e9814c539)" style="fill: none; stroke: #ff0000; stroke-width: 1.5; stroke-linecap: square"/>
   </g>
   <g id="line2d_176">
    <path d="M 255.643717 151.446533 
L 265.656085 133.350742 
" clip-path="url(#p9e9814c539)" style="fill: none; stroke: #ff0000; stroke-width: 1.5; stroke-linecap: square"/>
   </g>
   <g id="line2d_177">
    <path d="M 254.088337 159.709136 
L 255.643717 151.446533 
" clip-path="url(#p9e9814c539)" style="fill: none; stroke: #ff0000; stroke-width: 1.5; stroke-linecap: square"/>
   </g>
   <g id="line2d_178">
    <path d="M 252.09461 170.300321 
L 254.088337 159.709136 
" clip-path="url(#p9e9814c539)" style="fill: none; stroke: #ff0000; stroke-width: 1.5; stroke-linecap: square"/>
   </g>
   <g id="line2d_179">
    <path d="M 255.179003 177.18119 
L 252.09461 170.300321 
" clip-path="url(#p9e9814c539)" style="fill: none; stroke: #ff0000; stroke-width: 1.5; stroke-linecap: square"/>
   </g>
   <g id="line2d_180">
    <path d="M 257.575231 182.526853 
L 255.179003 177.18119 
" clip-path="url(#p9e9814c539)" style="fill: none; stroke: #ff0000; stroke-width: 1.5; stroke-linecap: square"/>
   </g>
   <g id="line2d_181">
    <path d="M 263.914119 184.568623 
L 257.575231 182.526853 
" clip-path="url(#p9e9814c539)" style="fill: none; stroke: #ff0000; stroke-width: 1.5; stroke-linecap: square"/>
   </g>
   <g id="line2d_182">
    <path d="M 272.329409 187.27919 
L 263.914119 184.568623 
" clip-path="url(#p9e9814c539)" style="fill: none; stroke: #ff0000; stroke-width: 1.5; stroke-linecap: square"/>
   </g>
   <g id="line2d_183">
    <path d="M 277.311789 186.19601 
L 272.329409 187.27919 
" clip-path="url(#p9e9814c539)" style="fill: none; stroke: #ff0000; stroke-width: 1.5; stroke-linecap: square"/>
   </g>
   <g id="line2d_184">
    <path d="M 290.32014 183.367983 
L 277.311789 186.19601 
" clip-path="url(#p9e9814c539)" style="fill: none; stroke: #ff0000; stroke-width: 1.5; stroke-linecap: square"/>
   </g>
   <g id="text_17">
    <!-- Intersection between a sphere_poly12 and -->
    <g transform="translate(167.1825 14.786625) scale(0.12 -0.12)">
     <defs>
      <path id="DejaVuSans-49" d="M 628 4666 
L 1259 4666 
L 1259 0 
L 628 0 
L 628 4666 
z
" transform="scale(0.015625)"/>
      <path id="DejaVuSans-6e" d="M 3513 2113 
L 3513 0 
L 2938 0 
L 2938 2094 
Q 2938 2591 2744 2837 
Q 2550 3084 2163 3084 
Q 1697 3084 1428 2787 
Q 1159 2491 1159 1978 
L 1159 0 
L 581 0 
L 581 3500 
L 1159 3500 
L 1159 2956 
Q 1366 3272 1645 3428 
Q 1925 3584 2291 3584 
Q 2894 3584 3203 3211 
Q 3513 2838 3513 2113 
z
" transform="scale(0.015625)"/>
      <path id="DejaVuSans-74" d="M 1172 4494 
L 1172 3500 
L 2356 3500 
L 2356 3053 
L 1172 3053 
L 1172 1153 
Q 1172 725 1289 603 
Q 1406 481 1766 481 
L 2356 481 
L 2356 0 
L 1766 0 
Q 1100 0 847 248 
Q 594 497 594 1153 
L 594 3053 
L 172 3053 
L 172 3500 
L 594 3500 
L 594 4494 
L 1172 4494 
z
" transform="scale(0.015625)"/>
      <path id="DejaVuSans-65" d="M 3597 1894 
L 3597 1613 
L 953 1613 
Q 991 1019 1311 708 
Q 1631 397 2203 397 
Q 2534 397 2845 478 
Q 3156 559 3463 722 
L 3463 178 
Q 3153 47 2828 -22 
Q 2503 -91 2169 -91 
Q 1331 -91 842 396 
Q 353 884 353 1716 
Q 353 2575 817 3079 
Q 1281 3584 2069 3584 
Q 2775 3584 3186 3129 
Q 3597 2675 3597 1894 
z
M 3022 2063 
Q 3016 2534 2758 2815 
Q 2500 3097 2075 3097 
Q 1594 3097 1305 2825 
Q 1016 2553 972 2059 
L 3022 2063 
z
" transform="scale(0.015625)"/>
      <path id="DejaVuSans-72" d="M 2631 2963 
Q 2534 3019 2420 3045 
Q 2306 3072 2169 3072 
Q 1681 3072 1420 2755 
Q 1159 2438 1159 1844 
L 1159 0 
L 581 0 
L 581 3500 
L 1159 3500 
L 1159 2956 
Q 1341 3275 1631 3429 
Q 1922 3584 2338 3584 
Q 2397 3584 2469 3576 
Q 2541 3569 2628 3553 
L 2631 2963 
z
" transform="scale(0.015625)"/>
      <path id="DejaVuSans-73" d="M 2834 3397 
L 2834 2853 
Q 2591 2978 2328 3040 
Q 2066 3103 1784 3103 
Q 1356 3103 1142 2972 
Q 928 2841 928 2578 
Q 928 2378 1081 2264 
Q 1234 2150 1697 2047 
L 1894 2003 
Q 2506 1872 2764 1633 
Q 3022 1394 3022 966 
Q 3022 478 2636 193 
Q 2250 -91 1575 -91 
Q 1294 -91 989 -36 
Q 684 19 347 128 
L 347 722 
Q 666 556 975 473 
Q 1284 391 1588 391 
Q 1994 391 2212 530 
Q 2431 669 2431 922 
Q 2431 1156 2273 1281 
Q 2116 1406 1581 1522 
L 1381 1569 
Q 847 1681 609 1914 
Q 372 2147 372 2553 
Q 372 3047 722 3315 
Q 1072 3584 1716 3584 
Q 2034 3584 2315 3537 
Q 2597 3491 2834 3397 
z
" transform="scale(0.015625)"/>
      <path id="DejaVuSans-63" d="M 3122 3366 
L 3122 2828 
Q 2878 2963 2633 3030 
Q 2388 3097 2138 3097 
Q 1578 3097 1268 2742 
Q 959 2388 959 1747 
Q 959 1106 1268 751 
Q 1578 397 2138 397 
Q 2388 397 2633 464 
Q 2878 531 3122 666 
L 3122 134 
Q 2881 22 2623 -34 
Q 2366 -91 2075 -91 
Q 1284 -91 818 406 
Q 353 903 353 1747 
Q 353 2603 823 3093 
Q 1294 3584 2113 3584 
Q 2378 3584 2631 3529 
Q 2884 3475 3122 3366 
z
" transform="scale(0.015625)"/>
      <path id="DejaVuSans-69" d="M 603 3500 
L 1178 3500 
L 1178 0 
L 603 0 
L 603 3500 
z
M 603 4863 
L 1178 4863 
L 1178 4134 
L 603 4134 
L 603 4863 
z
" transform="scale(0.015625)"/>
      <path id="DejaVuSans-6f" d="M 1959 3097 
Q 1497 3097 1228 2736 
Q 959 2375 959 1747 
Q 959 1119 1226 758 
Q 1494 397 1959 397 
Q 2419 397 2687 759 
Q 2956 1122 2956 1747 
Q 2956 2369 2687 2733 
Q 2419 3097 1959 3097 
z
M 1959 3584 
Q 2709 3584 3137 3096 
Q 3566 2609 3566 1747 
Q 3566 888 3137 398 
Q 2709 -91 1959 -91 
Q 1206 -91 779 398 
Q 353 888 353 1747 
Q 353 2609 779 3096 
Q 1206 3584 1959 3584 
z
" transform="scale(0.015625)"/>
      <path id="DejaVuSans-20" transform="scale(0.015625)"/>
      <path id="DejaVuSans-62" d="M 3116 1747 
Q 3116 2381 2855 2742 
Q 2594 3103 2138 3103 
Q 1681 3103 1420 2742 
Q 1159 2381 1159 1747 
Q 1159 1113 1420 752 
Q 1681 391 2138 391 
Q 2594 391 2855 752 
Q 3116 1113 3116 1747 
z
M 1159 2969 
Q 1341 3281 1617 3432 
Q 1894 3584 2278 3584 
Q 2916 3584 3314 3078 
Q 3713 2572 3713 1747 
Q 3713 922 3314 415 
Q 2916 -91 2278 -91 
Q 1894 -91 1617 61 
Q 1341 213 1159 525 
L 1159 0 
L 581 0 
L 581 4863 
L 1159 4863 
L 1159 2969 
z
" transform="scale(0.015625)"/>
      <path id="DejaVuSans-77" d="M 269 3500 
L 844 3500 
L 1563 769 
L 2278 3500 
L 2956 3500 
L 3675 769 
L 4391 3500 
L 4966 3500 
L 4050 0 
L 3372 0 
L 2619 2869 
L 1863 0 
L 1184 0 
L 269 3500 
z
" transform="scale(0.015625)"/>
      <path id="DejaVuSans-61" d="M 2194 1759 
Q 1497 1759 1228 1600 
Q 959 1441 959 1056 
Q 959 750 1161 570 
Q 1363 391 1709 391 
Q 2188 391 2477 730 
Q 2766 1069 2766 1631 
L 2766 1759 
L 2194 1759 
z
M 3341 1997 
L 3341 0 
L 2766 0 
L 2766 531 
Q 2569 213 2275 61 
Q 1981 -91 1556 -91 
Q 1019 -91 701 211 
Q 384 513 384 1019 
Q 384 1609 779 1909 
Q 1175 2209 1959 2209 
L 2766 2209 
L 2766 2266 
Q 2766 2663 2505 2880 
Q 2244 3097 1772 3097 
Q 1472 3097 1187 3025 
Q 903 2953 641 2809 
L 641 3341 
Q 956 3463 1253 3523 
Q 1550 3584 1831 3584 
Q 2591 3584 2966 3190 
Q 3341 2797 3341 1997 
z
" transform="scale(0.015625)"/>
      <path id="DejaVuSans-70" d="M 1159 525 
L 1159 -1331 
L 581 -1331 
L 581 3500 
L 1159 3500 
L 1159 2969 
Q 1341 3281 1617 3432 
Q 1894 3584 2278 3584 
Q 2916 3584 3314 3078 
Q 3713 2572 3713 1747 
Q 3713 922 3314 415 
Q 2916 -91 2278 -91 
Q 1894 -91 1617 61 
Q 1341 213 1159 525 
z
M 3116 1747 
Q 3116 2381 2855 2742 
Q 2594 3103 2138 3103 
Q 1681 3103 1420 2742 
Q 1159 2381 1159 1747 
Q 1159 1113 1420 752 
Q 1681 391 2138 391 
Q 2594 391 2855 752 
Q 3116 1113 3116 1747 
z
" transform="scale(0.015625)"/>
      <path id="DejaVuSans-68" d="M 3513 2113 
L 3513 0 
L 2938 0 
L 2938 2094 
Q 2938 2591 2744 2837 
Q 2550 3084 2163 3084 
Q 1697 3084 1428 2787 
Q 1159 2491 1159 1978 
L 1159 0 
L 581 0 
L 581 4863 
L 1159 4863 
L 1159 2956 
Q 1366 3272 1645 3428 
Q 1925 3584 2291 3584 
Q 2894 3584 3203 3211 
Q 3513 2838 3513 2113 
z
" transform="scale(0.015625)"/>
      <path id="DejaVuSans-5f" d="M 3263 -1063 
L 3263 -1509 
L -63 -1509 
L -63 -1063 
L 3263 -1063 
z
" transform="scale(0.015625)"/>
      <path id="DejaVuSans-6c" d="M 603 4863 
L 1178 4863 
L 1178 0 
L 603 0 
L 603 4863 
z
" transform="scale(0.015625)"/>
      <path id="DejaVuSans-32" d="M 1228 531 
L 3431 531 
L 3431 0 
L 469 0 
L 469 531 
Q 828 903 1448 1529 
Q 2069 2156 2228 2338 
Q 2531 2678 2651 2914 
Q 2772 3150 2772 3378 
Q 2772 3750 2511 3984 
Q 2250 4219 1831 4219 
Q 1534 4219 1204 4116 
Q 875 4013 500 3803 
L 500 4441 
Q 881 4594 1212 4672 
Q 1544 4750 1819 4750 
Q 2544 4750 2975 4387 
Q 3406 4025 3406 3419 
Q 3406 3131 3298 2873 
Q 3191 2616 2906 2266 
Q 2828 2175 2409 1742 
Q 1991 1309 1228 531 
z
" transform="scale(0.015625)"/>
      <path id="DejaVuSans-64" d="M 2906 2969 
L 2906 4863 
L 3481 4863 
L 3481 0 
L 2906 0 
L 2906 525 
Q 2725 213 2448 61 
Q 2172 -91 1784 -91 
Q 1150 -91 751 415 
Q 353 922 353 1747 
Q 353 2572 751 3078 
Q 1150 3584 1784 3584 
Q 2172 3584 2448 3432 
Q 2725 3281 2906 2969 
z
M 947 1747 
Q 947 1113 1208 752 
Q 1469 391 1925 391 
Q 2381 391 2643 752 
Q 2906 1113 2906 1747 
Q 2906 2381 2643 2742 
Q 2381 3103 1925 3103 
Q 1469 3103 1208 2742 
Q 947 2381 947 1747 
z
" transform="scale(0.015625)"/>
     </defs>
     <use xlink:href="#DejaVuSans-49"/>
     <use xlink:href="#DejaVuSans-6e" x="29.492188"/>
     <use xlink:href="#DejaVuSans-74" x="92.871094"/>
     <use xlink:href="#DejaVuSans-65" x="132.080078"/>
     <use xlink:href="#DejaVuSans-72" x="193.603516"/>
     <use xlink:href="#DejaVuSans-73" x="234.716797"/>
     <use xlink:href="#DejaVuSans-65" x="286.816406"/>
     <use xlink:href="#DejaVuSans-63" x="348.339844"/>
     <use xlink:href="#DejaVuSans-74" x="403.320312"/>
     <use xlink:href="#DejaVuSans-69" x="442.529297"/>
     <use xlink:href="#DejaVuSans-6f" x="470.3125"/>
     <use xlink:href="#DejaVuSans-6e" x="531.494141"/>
     <use xlink:href="#DejaVuSans-20" x="594.873047"/>
     <use xlink:href="#DejaVuSans-62" x="626.660156"/>
     <use xlink:href="#DejaVuSans-65" x="690.136719"/>
     <use xlink:href="#DejaVuSans-74" x="751.660156"/>
     <use xlink:href="#DejaVuSans-77" x="790.869141"/>
     <use xlink:href="#DejaVuSans-65" x="872.65625"/>
     <use xlink:href="#DejaVuSans-65" x="934.179688"/>
     <use xlink:href="#DejaVuSans-6e" x="995.703125"/>
     <use xlink:href="#DejaVuSans-20" x="1059.082031"/>
     <use xlink:href="#DejaVuSans-61" x="1090.869141"/>
     <use xlink:href="#DejaVuSans-20" x="1152.148438"/>
     <use xlink:href="#DejaVuSans-73" x="1183.935547"/>
     <use xlink:href="#DejaVuSans-70" x="1236.035156"/>
     <use xlink:href="#DejaVuSans-68" x="1299.511719"/>
     <use xlink:href="#DejaVuSans-65" x="1362.890625"/>
     <use xlink:href="#DejaVuSans-72" x="1424.414062"/>
     <use xlink:href="#DejaVuSans-65" x="1463.277344"/>
     <use xlink:href="#DejaVuSans-5f" x="1524.800781"/>
     <use xlink:href="#DejaVuSans-70" x="1574.800781"/>
     <use xlink:href="#DejaVuSans-6f" x="1638.277344"/>
     <use xlink:href="#DejaVuSans-6c" x="1699.458984"/>
     <use xlink:href="#DejaVuSans-79" x="1727.242188"/>
     <use xlink:href="#DejaVuSans-31" x="1786.421875"/>
     <use xlink:href="#DejaVuSans-32" x="1850.044922"/>
     <use xlink:href="#DejaVuSans-20" x="1913.667969"/>
     <use xlink:href="#DejaVuSans-61" x="1945.455078"/>
     <use xlink:href="#DejaVuSans-6e" x="2006.734375"/>
     <use xlink:href="#DejaVuSans-64" x="2070.113281"/>
    </g>
    <!-- the plan $5.0x+5.0y-10.0z=0.0$ -->
    <g transform="translate(194.22 28.56) scale(0.12 -0.12)">
     <defs>
      <path id="DejaVuSans-2e" d="M 684 794 
L 1344 794 
L 1344 0 
L 684 0 
L 684 794 
z
" transform="scale(0.015625)"/>
      <path id="DejaVuSans-Oblique-78" d="M 3841 3500 
L 2234 1784 
L 3219 0 
L 2559 0 
L 1819 1388 
L 531 0 
L -166 0 
L 1556 1844 
L 641 3500 
L 1300 3500 
L 1972 2234 
L 3144 3500 
L 3841 3500 
z
" transform="scale(0.015625)"/>
      <path id="DejaVuSans-2b" d="M 2944 4013 
L 2944 2272 
L 4684 2272 
L 4684 1741 
L 2944 1741 
L 2944 0 
L 2419 0 
L 2419 1741 
L 678 1741 
L 678 2272 
L 2419 2272 
L 2419 4013 
L 2944 4013 
z
" transform="scale(0.015625)"/>
      <path id="DejaVuSans-Oblique-79" d="M 1588 -325 
Q 1188 -997 936 -1164 
Q 684 -1331 294 -1331 
L -159 -1331 
L -63 -850 
L 269 -850 
Q 509 -850 678 -719 
Q 847 -588 1056 -206 
L 1234 128 
L 459 3500 
L 1069 3500 
L 1650 819 
L 3256 3500 
L 3859 3500 
L 1588 -325 
z
" transform="scale(0.015625)"/>
      <path id="DejaVuSans-Oblique-7a" d="M 744 3500 
L 3475 3500 
L 3372 2975 
L 738 459 
L 2913 459 
L 2822 0 
L -19 0 
L 84 525 
L 2719 3041 
L 653 3041 
L 744 3500 
z
" transform="scale(0.015625)"/>
      <path id="DejaVuSans-3d" d="M 678 2906 
L 4684 2906 
L 4684 2381 
L 678 2381 
L 678 2906 
z
M 678 1631 
L 4684 1631 
L 4684 1100 
L 678 1100 
L 678 1631 
z
" transform="scale(0.015625)"/>
     </defs>
     <use xlink:href="#DejaVuSans-74" transform="translate(0 0.015625)"/>
     <use xlink:href="#DejaVuSans-68" transform="translate(39.208984 0.015625)"/>
     <use xlink:href="#DejaVuSans-65" transform="translate(102.587891 0.015625)"/>
     <use xlink:href="#DejaVuSans-20" transform="translate(164.111328 0.015625)"/>
     <use xlink:href="#DejaVuSans-70" transform="translate(195.898438 0.015625)"/>
     <use xlink:href="#DejaVuSans-6c" transform="translate(259.375 0.015625)"/>
     <use xlink:href="#DejaVuSans-61" transform="translate(287.158203 0.015625)"/>
     <use xlink:href="#DejaVuSans-6e" transform="translate(348.4375 0.015625)"/>
     <use xlink:href="#DejaVuSans-20" transform="translate(411.816406 0.015625)"/>
     <use xlink:href="#DejaVuSans-35" transform="translate(443.603516 0.015625)"/>
     <use xlink:href="#DejaVuSans-2e" transform="translate(507.226562 0.015625)"/>
     <use xlink:href="#DejaVuSans-30" transform="translate(539.013672 0.015625)"/>
     <use xlink:href="#DejaVuSans-Oblique-78" transform="translate(602.636719 0.015625)"/>
     <use xlink:href="#DejaVuSans-2b" transform="translate(681.298828 0.015625)"/>
     <use xlink:href="#DejaVuSans-35" transform="translate(784.570312 0.015625)"/>
     <use xlink:href="#DejaVuSans-2e" transform="translate(848.193359 0.015625)"/>
     <use xlink:href="#DejaVuSans-30" transform="translate(879.980469 0.015625)"/>
     <use xlink:href="#DejaVuSans-Oblique-79" transform="translate(943.603516 0.015625)"/>
     <use xlink:href="#DejaVuSans-2212" transform="translate(1022.265625 0.015625)"/>
     <use xlink:href="#DejaVuSans-31" transform="translate(1125.537109 0.015625)"/>
     <use xlink:href="#DejaVuSans-30" transform="translate(1189.160156 0.015625)"/>
     <use xlink:href="#DejaVuSans-2e" transform="translate(1252.783203 0.015625)"/>
     <use xlink:href="#DejaVuSans-30" transform="translate(1284.570312 0.015625)"/>
     <use xlink:href="#DejaVuSans-Oblique-7a" transform="translate(1348.193359 0.015625)"/>
     <use xlink:href="#DejaVuSans-3d" transform="translate(1420.166016 0.015625)"/>
     <use xlink:href="#DejaVuSans-30" transform="translate(1523.4375 0.015625)"/>
     <use xlink:href="#DejaVuSans-2e" transform="translate(1587.060547 0.015625)"/>
     <use xlink:href="#DejaVuSans-30" transform="translate(1618.847656 0.015625)"/>
    </g>
   </g>
  </g>
 </g>
 <defs>
  <clipPath id="p9e9814c539">
   <rect x="186.48" y="34.56" width="217.44" height="217.44"/>
  </clipPath>
 </defs>
</svg>
